<?xml version="1.0" encoding="utf-8"?>
<!-- Generator: Adobe Illustrator 18.0.0, SVG Export Plug-In . SVG Version: 6.00 Build 0)  -->
<!DOCTYPE svg PUBLIC "-//W3C//DTD SVG 1.1 Tiny//EN" "http://www.w3.org/Graphics/SVG/1.1/DTD/svg11-tiny.dtd">
<svg version="1.1" baseProfile="tiny" id="Layer_1" xmlns="http://www.w3.org/2000/svg" xmlns:xlink="http://www.w3.org/1999/xlink"
	 x="0px" y="0px" viewBox="0 0 400 320" xml:space="preserve">
<g>
	<g id="XMLID_30_">
		<g>
			<rect x="259.3" y="50.8" fill="#22779E" width="68.9" height="7.8"/>
			<polygon fill="#22779E" points="293.9,247.2 282.8,247.2 282.8,68.7 259.3,68.7 259.3,60.7 293.1,60.7 293.1,247.1 			"/>
			<polygon fill="#175675" points="295,60.7 328.2,60.7 328.2,68.7 305.1,68.7 305.1,247.2 295,247.2 			"/>
		</g>
		<g>
		</g>
	</g>
	<g id="XMLID_31_">
		<g>
			<polygon fill="#22779E" points="399.9,58.7 356.1,58.7 356.1,239.4 400,239.4 400,247.2 347.1,247.2 347.1,50.8 399.9,50.8 			
				"/>
			<polygon fill="#175675" points="394.8,155.1 367.7,155.1 367.7,228.9 400,228.9 400,237.4 358.1,237.4 358.1,147.1 394.8,147.1 
							"/>
			<polygon fill="#175675" points="399.9,68.9 367.7,68.9 367.7,136.2 394.8,136.2 394.8,145.1 358.1,145.1 358.1,60.7 399.9,60.7 
							"/>
		</g>
		<g>
		</g>
	</g>
	<g id="XMLID_10_">
		<g>
			<polygon fill="#175675" points="130.8,236.7 91,236.7 91,50.8 101.1,50.8 101.1,228.9 130.8,228.9 			"/>
			<polygon fill="#22779E" points="130.8,247.4 79.3,247.4 79.3,50.8 89.1,50.8 89.1,238.7 130.8,238.7 			"/>
		</g>
		<g>
		</g>
	</g>
	<g id="XMLID_9_">
		<g>
			<path fill="#175675" d="M30.5,60.9c7.8,0,11.6,2.8,13.7,6c2.1,3.2,2.3,6.8,2.3,8.4c0,0.1,0,0.3,0,0.4c0,0.9,0,4.4,0,8.7
				c0,8,0,18.6,0,20.1h-9.2V79.4c0,0,0-8.5-7-8.5c-6.4,0-5.7,9-5.7,9v20.5c0,0-0.2,4.4,1.7,9.7c1.6,4.4,5.8,10.7,6.4,11.9
				c0.4,0.8,20.4,36.1,24.9,44c4.5,8,3.9,13.2,4,18.7c0,2.7,0,18.2,0,39.8c0,13.5-11.8,23.6-31.5,23.7C9.2,248.1-0.1,236.4,0,222.7
				C0,211.8,0,191,0,191h9.9c0,2.5,0,14.3,0,23c0,4.9,0,8.7,0,9.4c0,0.4,0,1.7,0.4,3.4c0.5,2.5,1.7,5.8,4.8,8.5
				c3.1,2.7,7.9,4.7,15.5,4.7h0.1c10,0,15.6-3.6,18.6-7.6c3-4,3.4-8.2,3.5-9.4c0-0.5,0.1-1.9,0.1-3.9c0.1-6,0.1-17.4,0.1-23.4
				c0-2.4,0-4,0-4c0,0-0.1-3.6-0.1-6.1c-0.1-4.7,0.3-10.3-4.2-17.7c-2.2-3.6-9.6-15.7-16.4-26.9c-3.4-5.6-6.7-11-9.1-15
				c-2.3-3.7-3.8-6.2-4-6.5c0-0.1-0.2-0.4-0.5-1c-0.9-1.9-2.9-6.2-3.5-9.3c-0.2-0.9-0.3-2.4-0.3-4c-0.1-1.6-0.1-3.3-0.1-4.5
				c0-1,0-1.7,0-1.7v0c0,0,0-2.5,0-5.9s0-7.8,0-11.4c0-3.7,0-6.7,0-7.3c0-0.6,0-1.7,0.1-3.1c0.3-2.1,1-4.6,3.2-6.7
				C20,62.5,23.8,60.9,30.5,60.9z"/>
			<path fill="#22779E" d="M57.5,104.4h-9c0-0.7,0-3.3,0-6.8c0-4,0-9.1,0-13.4c0-4.3,0-7.8,0-8.7c0-0.1,0-0.3,0-0.4
				c0-1.8-0.2-5.8-2.6-9.4c-2.4-3.7-7.1-6.9-15.4-6.8c-4.6,0-8.1,0.8-10.7,2c-3.9,1.9-5.8,4.9-6.6,7.5c-0.4,1.3-0.6,2.6-0.6,3.6
				c-0.1,1,0,1.8-0.1,2.2c0,0.8,0,3.7,0,7.4c0,7.1,0,16.9,0,17.3c0,0.1,0,0.7,0,1.7c0,1.2,0,2.9,0.1,4.5c0.1,1.7,0.2,3.2,0.4,4.3
				c0.9,4.7,4.2,10.8,4.2,10.8l0,0l0,0c0,0,25.2,41.3,29.6,48.4c4.2,6.9,3.8,11.9,3.9,16.7c0.1,2.4,0.1,6,0.1,6.1c0,0,0,1.6,0,4
				c0,4,0,10.4,0,16c0,2.8,0,5.4,0,7.4c0,2,0,3.4-0.1,3.8c-0.1,1-0.4,4.9-3.1,8.4c-2.6,3.5-7.5,6.8-17.1,6.8
				c-4.8,0-8.3-0.8-10.9-2.1c-3.9-1.9-5.8-4.7-6.7-7.2c-0.5-1.3-0.7-2.5-0.9-3.4c-0.1-1-0.1-1.7-0.2-2.1c0-0.6,0-4.4,0-9.3
				s0-10.7,0-15.3c0-3.7,0-6.6,0-7.6h9.5c0,0-0.2,26.5,0,28.4c0.2,1.9-0.2,9.4,9.2,9.4c8.7,0.1,10-6.9,10.1-9.4
				c0.1-2.5,0-20.9,0-20.9V191c0,0,0-1.3,0-3.6c0-3.3-1.2-8.9-4.1-13.9c-1.1-1.9-23.8-40.1-26-44.4c-5.3-10.3-8.7-15.5-8.5-25.8
				c0.1-10.3,0-29.1,0-32.5c0-8.9,8.7-20.3,28.1-20.4C48.7,50.3,57.6,64,57.6,70.9L57.5,104.4z"/>
		</g>
		<g>
		</g>
	</g>
	<g id="XMLID_29_">
		<g>
			<path fill="#22779E" d="M136.5,178.8h6.2c0,0-1.3,1-1.3,3.5c0,2.7,1.1,3.9,1.1,3.9h-6c0,0-1.3-1-1.3-3.7
				C135.1,179.8,136.5,178.8,136.5,178.8z"/>
			<polygon fill="#22779E" points="201.8,54.4 200.6,54.4 198.4,37.3 193.1,37.3 193.9,34.7 208.1,34.7 209.2,37 204.6,37 
				204.3,38.5 			"/>
			<path fill="#22779E" d="M201,11.9c-4,0-4.9,1.7-4.9,1.7l-0.6-8.9c0,0,1.5-1.9,5.5-1.9s5.4,1.9,5.4,1.9l-0.6,9.2
				C205.8,13.9,204.7,12,201,11.9z"/>
			<path fill="#22779E" d="M147,288.8c1.3,4.5,5.3,7.8,10.1,8.1c-1.5,7.1-2.4,11.6-2.4,11.6l-4.4-0.1L148,300l-3.3-10.5L147,288.8z"
				/>
			<path fill="#22779E" d="M146.5,285.5c0,1.1,0.2,2.2,0.5,3.2l-2.3,0.7l-1.7-5.3l18.1-98.1h-16.7c0,0-1.2-0.6-1.2-3.7
				c-0.1-3.1,1.7-3.6,1.7-3.6h18.3l25.3-140h8.4l2.4,15.8l0.2,1.6c-5.6,0.7-10,5.5-10,11.3c0,1.7,0.4,3.2,1,4.7l-0.4,2.1
				l-37.7,201.4C148.9,277.5,146.5,281.3,146.5,285.5z"/>
			<polygon fill="#22779E" points="154.4,314.3 154.4,316.7 150.8,309.3 154.4,309.4 			"/>
			<path fill="#175675" d="M220.4,178.6l-17.6-100c2.9-0.5,5.5-2.1,7.2-4.4L247.4,275c-1.3-0.5-2.8-0.8-4.3-0.8
				c-1.1,0-2.2,0.2-3.2,0.5c-7-33.8-16.9-81.4-17.5-84.6c0-0.1-0.3-1.8-0.6-2.9c-0.3-1.2-1.9-1-1.9-1h-14.8v-7.5H220.4z"/>
			<polygon fill="#22779E" points="247.2,309 250.6,309.1 250.1,311.7 247.5,311.9 			"/>
			<path fill="#22779E" d="M259.6,257.9c0.2,1.1-0.6,2.1-1.6,2.2c-1.1,0.2-2-0.6-2.2-1.6l-2.1-13.9c-0.2-1.1,0.6-2.1,1.6-2.2
				c1-0.2,2,0.6,2.2,1.6L259.6,257.9z"/>
			<path fill="#22779E" d="M205.8,38.8h7.8l25.9,139.9h14.6c0,0-1.3,1-1.3,3.6c0,2.9,1.3,3.8,1.3,3.8h-13.6l11.9,64.3l1.4-0.2l0.5,3
				l-1.4,0.3l4.7,30.5l-1.2,4.7l-2.2-0.5c0.2-0.9,0.3-1.7,0.3-2.6c0-4-2.1-7.5-5.2-9.5l0.3-0.1L211.9,73.8l-0.4-2.4
				c0.5-1.2,0.7-2.6,0.7-4c0-5.5-3.9-10.1-9.1-11.1L205.8,38.8z"/>
			<path fill="#22779E" d="M259,249.1c1-0.2,2,0.5,2.2,1.5l-1.4,0.2l0.1,0.3l1.4-0.2c0,1-0.6,1.8-1.6,2
				C259.6,252.8,259,249.1,259,249.1z"/>
			<path fill="#22779E" d="M179.7,190.7c0,0.1,0,0.2,0,0.2C179.6,190.9,179.6,190.8,179.7,190.7z"/>
			<rect x="195.7" y="31.6" fill="#22779E" width="10.8" height="2.2"/>
			<path fill="#22779E" d="M204.7,30.4h-7.5v-16c0,0,0.6-1.1,3.7-1.1s3.8,1.1,3.8,1.1V30.4z"/>
			<path fill="#22779E" d="M252,285.6c0,4.9-4,8.9-8.9,8.9s-8.9-4-8.9-8.9c0-4.9,4-8.9,8.9-8.9S252,280.7,252,285.6z"/>
			<path fill="#175675" d="M179.8,189.9c-0.6,2.6-10.8,50.9-18.1,85c-1.2-0.5-2.5-0.7-3.9-0.7c-1.2,0-2.3,0.2-3.3,0.5L192,74.6
				c1.7,2.1,4.1,3.6,6.9,4l-16.7,100.1h15.2v7.4h-14.8c0,0-1.3,0.1-2,1.1c-0.4,0.5-0.8,2.2-1,3.1
				C179.8,190.2,179.8,190.1,179.8,189.9C179.8,189.9,179.8,189.9,179.8,189.9z"/>
			<path fill="#22779E" d="M201.3,156.4c1.1,0,1.9,0.9,1.9,1.9v27.8v19c0,1.1-0.9,1.9-1.9,1.9c-1.1,0-1.9-0.9-1.9-1.9v-26.4v-20.4
				C199.3,157.2,200.2,156.4,201.3,156.4z"/>
			<path fill="#22779E" d="M206.8,60.5l-12.9,12.9c-3.1-3.6-3-9,0.4-12.4C197.8,57.5,203.2,57.4,206.8,60.5z"/>
			<path fill="#22779E" d="M263.2,186c-0.9,0-1.5-1.6-1.5-3.7c0-2,0.7-3.7,1.5-3.7s1.5,1.6,1.5,3.7C264.8,184.4,264.1,186,263.2,186
				z"/>
			<polygon fill="#22779E" points="249.6,312.4 247.6,316.4 247.6,312.5 			"/>
			<path fill="#22779E" d="M253.6,300l-1.7,8.3l-5-0.1c0,0-0.9-4.4-2.4-11.4c4.8-0.6,8.6-4.1,9.7-8.6l2.2,0.5L253.6,300z"/>
			<path fill="#22779E" d="M255.9,178.6h6c0,0-1,1.2-1,3.9c0,2.5,1.2,3.5,1.2,3.5h-6.2c0,0-1.3-1-1.3-3.7
				C254.6,179.6,255.9,178.6,255.9,178.6z"/>
			<path fill="#22779E" d="M207.2,73.8c-3.3,3.3-8.6,3.5-12.2,0.6l12.8-12.8C210.8,65.2,210.6,70.5,207.2,73.8z"/>
			<path fill="#22779E" d="M166.8,285.5c0,4.9-4,9-8.9,9c-4.9,0-8.9-4-8.9-9s4-8.9,8.9-8.9C162.8,276.5,166.8,280.5,166.8,285.5z"/>
		</g>
		<g>
		</g>
	</g>
</g>
</svg>
